<mxfile host="Electron" agent="Mozilla/5.0 (Windows NT 10.0; Win64; x64) AppleWebKit/537.36 (KHTML, like Gecko) draw.io/25.0.2 Chrome/128.0.6613.186 Electron/32.2.5 Safari/537.36" version="25.0.2">
  <diagram name="Page-1" id="4nlFRzmsLmOZOpcf_FVB">
    <mxGraphModel dx="1886" dy="585" grid="1" gridSize="10" guides="1" tooltips="1" connect="1" arrows="1" fold="1" page="1" pageScale="1" pageWidth="850" pageHeight="1100" math="0" shadow="0">
      <root>
        <mxCell id="0" />
        <mxCell id="1" parent="0" />
        <mxCell id="GkrcWae4l3uXFLF_trDs-3" style="edgeStyle=orthogonalEdgeStyle;rounded=0;orthogonalLoop=1;jettySize=auto;html=1;" edge="1" parent="1" source="GkrcWae4l3uXFLF_trDs-1" target="GkrcWae4l3uXFLF_trDs-2">
          <mxGeometry relative="1" as="geometry" />
        </mxCell>
        <mxCell id="GkrcWae4l3uXFLF_trDs-1" value="star" style="ellipse;whiteSpace=wrap;html=1;" vertex="1" parent="1">
          <mxGeometry x="-100" y="250" width="120" height="80" as="geometry" />
        </mxCell>
        <mxCell id="GkrcWae4l3uXFLF_trDs-9" style="edgeStyle=orthogonalEdgeStyle;rounded=0;orthogonalLoop=1;jettySize=auto;html=1;entryX=0;entryY=0.5;entryDx=0;entryDy=0;" edge="1" parent="1" source="GkrcWae4l3uXFLF_trDs-2" target="GkrcWae4l3uXFLF_trDs-4">
          <mxGeometry relative="1" as="geometry" />
        </mxCell>
        <mxCell id="GkrcWae4l3uXFLF_trDs-10" style="edgeStyle=orthogonalEdgeStyle;rounded=0;orthogonalLoop=1;jettySize=auto;html=1;exitX=1;exitY=0.75;exitDx=0;exitDy=0;entryX=0;entryY=0.5;entryDx=0;entryDy=0;" edge="1" parent="1" source="GkrcWae4l3uXFLF_trDs-2" target="GkrcWae4l3uXFLF_trDs-8">
          <mxGeometry relative="1" as="geometry" />
        </mxCell>
        <mxCell id="GkrcWae4l3uXFLF_trDs-2" value="nhập number&lt;div&gt;&lt;br&gt;&lt;/div&gt;" style="rounded=1;whiteSpace=wrap;html=1;" vertex="1" parent="1">
          <mxGeometry x="80" y="260" width="120" height="60" as="geometry" />
        </mxCell>
        <mxCell id="GkrcWae4l3uXFLF_trDs-13" style="edgeStyle=orthogonalEdgeStyle;rounded=0;orthogonalLoop=1;jettySize=auto;html=1;" edge="1" parent="1" source="GkrcWae4l3uXFLF_trDs-4" target="GkrcWae4l3uXFLF_trDs-11">
          <mxGeometry relative="1" as="geometry" />
        </mxCell>
        <mxCell id="GkrcWae4l3uXFLF_trDs-4" value="if ( number=&amp;gt;5)" style="rhombus;whiteSpace=wrap;html=1;" vertex="1" parent="1">
          <mxGeometry x="240" y="90" width="175" height="130" as="geometry" />
        </mxCell>
        <mxCell id="GkrcWae4l3uXFLF_trDs-14" style="edgeStyle=orthogonalEdgeStyle;rounded=0;orthogonalLoop=1;jettySize=auto;html=1;entryX=0;entryY=0.5;entryDx=0;entryDy=0;" edge="1" parent="1" source="GkrcWae4l3uXFLF_trDs-8" target="GkrcWae4l3uXFLF_trDs-12">
          <mxGeometry relative="1" as="geometry" />
        </mxCell>
        <mxCell id="GkrcWae4l3uXFLF_trDs-8" value="if (number=&amp;lt;5)" style="rhombus;whiteSpace=wrap;html=1;" vertex="1" parent="1">
          <mxGeometry x="250" y="350" width="170" height="110" as="geometry" />
        </mxCell>
        <mxCell id="GkrcWae4l3uXFLF_trDs-11" value="kết quả đạt" style="shape=parallelogram;perimeter=parallelogramPerimeter;whiteSpace=wrap;html=1;fixedSize=1;" vertex="1" parent="1">
          <mxGeometry x="460" y="180" width="120" height="60" as="geometry" />
        </mxCell>
        <mxCell id="GkrcWae4l3uXFLF_trDs-12" value="kết quả kông đạt&lt;div&gt;&lt;br&gt;&lt;/div&gt;" style="shape=parallelogram;perimeter=parallelogramPerimeter;whiteSpace=wrap;html=1;fixedSize=1;" vertex="1" parent="1">
          <mxGeometry x="460" y="350" width="120" height="60" as="geometry" />
        </mxCell>
        <mxCell id="GkrcWae4l3uXFLF_trDs-15" value="end" style="ellipse;whiteSpace=wrap;html=1;" vertex="1" parent="1">
          <mxGeometry x="660" y="250" width="120" height="80" as="geometry" />
        </mxCell>
        <mxCell id="GkrcWae4l3uXFLF_trDs-16" style="edgeStyle=orthogonalEdgeStyle;rounded=0;orthogonalLoop=1;jettySize=auto;html=1;entryX=0.333;entryY=0;entryDx=0;entryDy=0;entryPerimeter=0;" edge="1" parent="1" source="GkrcWae4l3uXFLF_trDs-11" target="GkrcWae4l3uXFLF_trDs-15">
          <mxGeometry relative="1" as="geometry" />
        </mxCell>
        <mxCell id="GkrcWae4l3uXFLF_trDs-17" style="edgeStyle=orthogonalEdgeStyle;rounded=0;orthogonalLoop=1;jettySize=auto;html=1;entryX=0.35;entryY=1.025;entryDx=0;entryDy=0;entryPerimeter=0;" edge="1" parent="1" source="GkrcWae4l3uXFLF_trDs-12" target="GkrcWae4l3uXFLF_trDs-15">
          <mxGeometry relative="1" as="geometry" />
        </mxCell>
      </root>
    </mxGraphModel>
  </diagram>
</mxfile>
